<svg xmlns:xlink="http://www.w3.org/1999/xlink" xmlns="http://www.w3.org/2000/svg" viewBox="0 0 1024 1024" height="15" width="15"><path fill="#ACBCC7" d="M964.37,981.87A457.62,457.62,0,0,0,692,573.72,302.25,302.25,0,0,0,810.57,333.38,303,303,0,1,0,238.86,473.45a305.91,305.91,0,0,0,84.32,100.38A458.88,458.88,0,0,0,86.65,814.09,449.62,449.62,0,0,0,50.8,981.85a14.64,14.64,0,0,0,14.25,15h72.46a14.51,14.51,0,0,0,14.61-14.24,355.59,355.59,0,0,1,710.93,0,14.52,14.52,0,0,0,14.62,14.26h72.09a14.63,14.63,0,0,0,14.62-14.61ZM709.25,333.38a201.76,201.76,0,1,1-59.09-142.57A200.3,200.3,0,0,1,709.25,333.38Z"></path></svg>