<svg xmlns:xlink="http://www.w3.org/1999/xlink" xmlns="http://www.w3.org/2000/svg" x="0px" y="0px" viewBox="0 0 24 24" enable-background="new 0 0 24 24" xml:space="preserve" height="14" width="14"><path fill="#ACBCC7" d="M18.2,0.7c-0.8,0-1.4,0.5-1.4,1.3v3.1c0,0.7,0.7,1.3,1.4,1.3c0.7,0,1.4-0.5,1.4-1.3V2 C19.6,1.3,18.9,0.7,18.2,0.7z"></path><path fill="#ACBCC7" d="M5.8,0.7C5,0.7,4.4,1.3,4.4,2v3.1c0,0.7,0.7,1.3,1.4,1.3s1.4-0.5,1.4-1.3V2C7.3,1.3,6.6,0.7,5.8,0.7z"></path><path fill="#ACBCC7" d="M21.7,3.6H2.3c-1.1,0-2,0.9-2,2v15.7c0,1.1,0.9,2,2,2h19.4c1.1,0,2-0.9,2-2V5.5C23.6,4.5,22.8,3.6,21.7,3.6z  M21.4,19.8c0,0.6-0.5,1.1-1.1,1.1H3.4c-0.5,0-0.9-0.4-0.9-0.9V9.7h19V19.8z"></path></svg>