<svg xmlns:xlink="http://www.w3.org/1999/xlink" xmlns="http://www.w3.org/2000/svg" x="0px" y="0px" viewBox="0 0 24 24" enable-background="new 0 0 24 24" xml:space="preserve" height="15" width="15"><g fill="#ACBCC7"><path d="M2.9,10H8c0.2,0,0.4-0.1,0.6-0.3c0.3-0.3,0.3-0.7,0-1.1l-2.2-2c1.5-1.5,3.5-2.3,5.6-2.3c4,0,7.2,2.9,7.7,6.8 c0.1,0.7,0.7,1.1,1.4,1.1l0.1,0c0.8-0.1,1.2-0.8,1.1-1.5c-0.5-5.2-5-9.1-10.3-9.1c-2.8,0-5.5,1.1-7.4,3.1L2.8,2.9 c-0.3-0.3-0.7-0.3-1.1,0C1.5,3.1,1.5,3.3,1.5,3.5v5.1C1.5,9.3,2.1,10,2.9,10z" fill="#ACBCC7"></path><path d="M21.1,14H16c-0.2,0-0.4,0.1-0.6,0.3c-0.3,0.3-0.3,0.7,0,1.1l2.1,2.1c-1.5,1.5-3.5,2.3-5.6,2.3c-4,0-7.2-2.9-7.7-6.9 c-0.2-0.7-0.9-1.3-1.6-1.2c-0.8,0.1-1.2,0.8-1.1,1.5c0.5,5.2,5,9.1,10.3,9.1c2.8,0,5.5-1.1,7.4-3.1l1.8,1.8c0.3,0.3,0.7,0.3,1.1,0 c0.1-0.1,0.3-0.3,0.3-0.6v-5.1C22.5,14.7,21.9,14,21.1,14z" fill="#ACBCC7"></path></g></svg>